# xmcd CD database file
#
# Track frame offsets:
#	220
#	7690
#	18245
#	25687
#	33475
#	45245
#	56005
#	66612
#	80242
#	92552
#	107560
#	116192
#	121855
#	128380
#	138665
#	146307
#	152865
#	159752
#	168962
#	173480
#	184292
#	193457
#	200887
#	206820
#	215397
#	229800
#	237235
#	246287
#	260842
#	281040
#	293500
#	308722
#	318062
#	334897
#
# Disc length: 4632 seconds
#
# Revision: 4
# Processed by: cddbd v1.5.2PL0 Copyright (c) Steve Scherf et al.
# Submitted via: CDex 1.70beta2
#
DISCID=e7121622
DTITLE=Various Artist - Folksongs of the Louisiana Acadians
DYEAR=1994
DGENRE=Cajun
TTITLE0=Grand Texas - Chuck Guillory
TTITLE1=Colinda - Wallace "Cheese" Read
TTITLE2=Tu Peux Cogner - Mrs. Odeus Guillory
TTITLE3=La Patate Chaude - Mrs. Rodney Fruge
TTITLE4=Je Charche Tout Partout - Wallace "Cheese" Read
TTITLE5=T'es Petite, Mais T'es Mignonne - Wallace "Cheese" Read
TTITLE6=La Danse de la Limonade - Mrs. Rodney Fruge
TTITLE7=La Betaille Dans Le 'Tit Arbre - Isom J. Fontenot
TTITLE8=Grand Mamou - Savy Augustine
TTITLE9=La Danse de Mardi Gras - Bee Deshotels
TTITLE10=Mes Souliers Sont Rouges - Bee Deshotels
TTITLE11=Contredanse Francaise - Isom J. Fontenot
TTITLE12=Y Avait Boitine Boiteuse - Bee Deshotels
TTITLE13=Aux Natchitoches - Bee Deshotels
TTITLE14=Contredanse de Mamou - Shelby Vidrine
TTITLE15=Saute Crapeau - Isom J. Fontenot
TTITLE16=Cadet Roussel - Isom J. Fontenot
TTITLE17=L'arbre Est Dans Ces Feuilles - Bee Deshotels
TTITLE18=J'ai Traverse La Mer Et Les Montagnes - Isom J. Fontenot
TTITLE19=Fiddle Stomp - Wallace "Cheese" Read
TTITLE20=Ma Chere Belle - Wallace "Cheese" Read
TTITLE21=French Jig - Wallace "Cheese" Read
TTITLE22=Empty Bottle Stomp - Wallace "Cheese" Read
TTITLE23=I Met a Girl in the Swamp - Wallace "Cheese" Read
TTITLE24=You Had Some But You Don't Anymore - Isom J. Fontenot
TTITLE25=Two-Step De Lanse Maigre - Isom J. Fontenot
TTITLE26=Mamou Breakdown - Wallace "Cheese" Read
TTITLE27=Prison Song - Austin Pitre
TTITLE28=Ninety-Nine Year Waltz - Milton Molitor
TTITLE29=Lost Lover Breakdown - Austin Pitre
TTITLE30=Le Blues de Elton - Milton Molitor
TTITLE31=Contredanse - Austin Pitre
TTITLE32=Molitor Waltz - Milton Molitor
TTITLE33=Hey Mom - Milton Molitor
EXTD=Recorded by Dr. Harry Oster YEAR: 1994
EXTT0=Chuck Guillory
EXTT1=Wallace "Cheese" Read
EXTT2=Mrs. Odeus Guillory
EXTT3=Mrs. Rodney Fruge
EXTT4=Wallace "Cheese" Read
EXTT5=Wallace "Cheese" Read
EXTT6=Mrs. Rodney Fruge
EXTT7=Isom J. Fontenot
EXTT8=Savy Augustine
EXTT9=Bee Deshotels
EXTT10=Bee Deshotels
EXTT11=Isom J. Fontenot
EXTT12=Bee Deshotels
EXTT13=Bee Deshotels
EXTT14=Shelby Vidrine
EXTT15=Isom J. Fontenot
EXTT16=Isom J. Fontenot
EXTT17=Bee Deshotels
EXTT18=Isom J. Fontenot
EXTT19=Wallace "Cheese" Read
EXTT20=Wallace "Cheese" Read
EXTT21=Wallace "Cheese" Read
EXTT22=Wallace "Cheese" Read
EXTT23=Wallace "Cheese" Read
EXTT24=Isom J. Fontenot
EXTT25=Isom J. Fontenot
EXTT26=Wallace "Cheese" Read
EXTT27=Austin Pitre
EXTT28=Milton Molitor
EXTT29=Austin Pitre
EXTT30=Milton Molitor
EXTT31=Austin Pitre
EXTT32=Milton Molitor
EXTT33=Milton Molitor
PLAYORDER=
